<?xml version="1.0" encoding="UTF-8" standalone="no"?>
<!-- Created with Inkscape (http://www.inkscape.org/) -->

<svg
   xmlns:dc="http://purl.org/dc/elements/1.1/"
   xmlns:cc="http://creativecommons.org/ns#"
   xmlns:rdf="http://www.w3.org/1999/02/22-rdf-syntax-ns#"
   xmlns:svg="http://www.w3.org/2000/svg"
   xmlns="http://www.w3.org/2000/svg"
   xmlns:sodipodi="http://sodipodi.sourceforge.net/DTD/sodipodi-0.dtd"
   xmlns:inkscape="http://www.inkscape.org/namespaces/inkscape"
   width="300"
   height="78.699997"
   viewBox="0 0 300.00001 78.699998"
   id="svg7999"
   version="1.1"
   inkscape:version="0.91 r"
   sodipodi:docname="cloudcraft-logo-with-text.svg">
  <defs
     id="defs8001" />
  <sodipodi:namedview
     id="base"
     pagecolor="#ffffff"
     bordercolor="#666666"
     borderopacity="1.0"
     inkscape:pageopacity="0.0"
     inkscape:pageshadow="2"
     inkscape:zoom="3.6066406"
     inkscape:cx="184.32744"
     inkscape:cy="-20.479367"
     inkscape:document-units="px"
     inkscape:current-layer="text8811"
     showgrid="false"
     units="px"
     inkscape:window-width="2495"
     inkscape:window-height="1416"
     inkscape:window-x="65"
     inkscape:window-y="24"
     inkscape:window-maximized="1" />
  <metadata
     id="metadata8004">
    <rdf:RDF>
      <cc:Work
         rdf:about="">
        <dc:format>image/svg+xml</dc:format>
        <dc:type
           rdf:resource="http://purl.org/dc/dcmitype/StillImage" />
        <dc:title></dc:title>
      </cc:Work>
    </rdf:RDF>
  </metadata>
  <g
     inkscape:label="Layer 1"
     inkscape:groupmode="layer"
     id="layer1"
     transform="translate(0,-973.66216)">
    <g
       id="g8586"
       transform="translate(-180.58943,520.45177)">
      <g
         inkscape:export-ydpi="41.776318"
         inkscape:export-xdpi="41.776318"
         inkscape:export-filename="/home/tjunnone/website/webclip.png"
         transform="matrix(0.14612101,0,0,0.14612101,263.54735,32.065717)"
         id="g8815"
         style="display:inline">
        <path
           style="display:inline;fill:#4286c5;fill-opacity:1;fill-rule:evenodd;stroke:none;stroke-width:1px;stroke-linecap:butt;stroke-linejoin:miter;stroke-opacity:1"
           d="m -469.53927,3279.0201 49.0975,-28.3464 49.0975,28.3464 -98.195,56.6929 z"
           id="path5887-0-5"
           inkscape:connector-curvature="0"
           inkscape:export-xdpi="300.04999"
           inkscape:export-ydpi="300.04999"
           inkscape:export-filename="/home/tjunnone/card/cloudcraft.png" />
        <path
           style="display:inline;fill:#30689c;fill-opacity:1;fill-rule:evenodd;stroke:none;stroke-width:1px;stroke-linecap:butt;stroke-linejoin:miter;stroke-opacity:1"
           d="m -518.63677,3080.5949 0,340.1575 -49.0975,-28.3465 0,-340.1574 z"
           id="path5883-14-8"
           inkscape:connector-curvature="0"
           inkscape:export-xdpi="300.04999"
           inkscape:export-ydpi="300.04999"
           inkscape:export-filename="/home/tjunnone/card/cloudcraft.png" />
        <path
           style="display:inline;fill:#22496e;fill-opacity:1;fill-rule:evenodd;stroke:none;stroke-width:2;stroke-linecap:butt;stroke-linejoin:miter;stroke-miterlimit:4;stroke-dasharray:none;stroke-opacity:1"
           d="m -518.63677,3080.5949 147.2925,-85.0393 0,56.6929 -98.195,56.6929 0,226.7716 98.195,-56.6929 0,56.6929 -147.2925,85.0394 z"
           id="path5885-2-03"
           inkscape:connector-curvature="0"
           inkscape:export-xdpi="300.04999"
           inkscape:export-ydpi="300.04999"
           inkscape:export-filename="/home/tjunnone/card/cloudcraft.png" />
        <path
           style="display:inline;fill:#f5b720;fill-opacity:1;fill-rule:evenodd;stroke:none;stroke-width:1px;stroke-linecap:butt;stroke-linejoin:miter;stroke-opacity:1"
           d="m -420.44177,3250.6737 49.0975,28.3464 98.195,-56.6929 -49.0975,-28.3464 z"
           id="path5893-4-14"
           inkscape:connector-curvature="0"
           inkscape:export-xdpi="300.04999"
           inkscape:export-ydpi="300.04999"
           inkscape:export-filename="/home/tjunnone/card/cloudcraft.png" />
        <path
           style="display:inline;fill:#e4a40a;fill-opacity:1;fill-rule:evenodd;stroke:none;stroke-width:2;stroke-linecap:butt;stroke-linejoin:miter;stroke-miterlimit:4;stroke-dasharray:none;stroke-opacity:1"
           d="m -322.24677,3023.902 49.0975,-28.3464 0,226.7716 -49.0975,-28.3464 z"
           id="path5897-5-5"
           inkscape:connector-curvature="0"
           inkscape:export-xdpi="300.04999"
           inkscape:export-ydpi="300.04999"
           inkscape:export-filename="/home/tjunnone/card/cloudcraft.png" />
        <path
           style="display:inline;fill:#c08a08;fill-opacity:1;fill-rule:evenodd;stroke:none;stroke-width:2;stroke-linecap:butt;stroke-linejoin:miter;stroke-miterlimit:4;stroke-dasharray:none;stroke-opacity:1"
           d="m -371.34427,2995.5556 0,56.6929 98.195,-56.6929 0,226.7716 -98.195,56.6929 0,56.6929 147.2925,-85.0393 0,-340.1575 z"
           id="path5891-83-7"
           inkscape:connector-curvature="0"
           inkscape:export-xdpi="300.04999"
           inkscape:export-ydpi="300.04999"
           inkscape:export-filename="/home/tjunnone/card/cloudcraft.png" />
        <path
           style="display:inline;fill:#4286c5;fill-opacity:1;fill-rule:evenodd;stroke:none;stroke-width:2;stroke-linecap:butt;stroke-linejoin:miter;stroke-miterlimit:4;stroke-dasharray:none;stroke-opacity:1"
           d="m -567.73427,3052.2485 49.0975,28.3464 147.2925,-85.0393 -49.0975,-28.3465 z"
           id="path5881-7-4"
           inkscape:connector-curvature="0"
           inkscape:export-xdpi="300.04999"
           inkscape:export-ydpi="300.04999"
           inkscape:export-filename="/home/tjunnone/card/cloudcraft.png" />
        <path
           style="display:inline;fill:#f5b720;fill-opacity:1;fill-rule:evenodd;stroke:none;stroke-width:2;stroke-linecap:butt;stroke-linejoin:miter;stroke-miterlimit:4;stroke-dasharray:none;stroke-opacity:1"
           d="m -420.44177,2967.2091 49.0975,28.3465 147.2925,-85.0394 -49.0975,-28.3465 z"
           id="path5889-9-0"
           inkscape:connector-curvature="0"
           inkscape:export-xdpi="300.04999"
           inkscape:export-ydpi="300.04999"
           inkscape:export-filename="/home/tjunnone/card/cloudcraft.png" />
      </g>
      <g
         style="font-style:normal;font-weight:normal;font-size:5.844841px;line-height:125%;font-family:sans-serif;letter-spacing:0px;word-spacing:0px;display:inline;fill:#4286c5;fill-opacity:1;stroke:none;stroke-width:1px;stroke-linecap:butt;stroke-linejoin:miter;stroke-opacity:1"
         id="text8811">
        <path
           d="m 256.12367,478.20102 q -3.97989,0 -6.16314,3.00197 -2.18326,2.97923 -2.18326,8.32365 0,11.12095 8.3464,11.12095 3.5023,0 8.48285,-1.75115 l 0,5.91298 q -4.0936,1.70567 -9.14238,1.70567 -7.25477,0 -11.0982,-4.38925 -3.84344,-4.41199 -3.84344,-12.64468 0,-5.18523 1.88761,-9.07415 1.8876,-3.91166 5.41265,-5.9812 3.54778,-2.09229 8.30091,-2.09229 4.84409,0 9.73367,2.34245 l -2.27422,5.73104 q -1.86486,-0.88694 -3.75247,-1.54647 -1.8876,-0.65952 -3.70698,-0.65952 z"
           style="font-style:normal;font-variant:normal;font-weight:bold;font-stretch:normal;font-size:46.57607651px;font-family:'Open Sans';-inkscape-font-specification:'Open Sans Bold';fill:#414141;fill-opacity:1"
           id="path8640" />
        <path
           d="m 278.04717,506.06024 -6.93638,0 0,-35.3869 6.93638,0 0,35.3869 z"
           style="font-style:normal;font-variant:normal;font-weight:bold;font-stretch:normal;font-size:46.57607651px;font-family:'Open Sans';-inkscape-font-specification:'Open Sans Bold';fill:#414141;fill-opacity:1"
           id="path8642" />
        <path
           d="m 290.8283,493.30185 q 0,3.77521 1.22808,5.7083 1.25082,1.93309 4.04812,1.93309 2.77455,0 3.97989,-1.91035 1.22808,-1.93308 1.22808,-5.73104 0,-3.77521 -1.22808,-5.66281 -1.22808,-1.88761 -4.02538,-1.88761 -2.77455,0 -4.00263,1.88761 -1.22808,1.86486 -1.22808,5.66281 z m 17.57974,0 q 0,6.20863 -3.27488,9.71093 -3.27488,3.50231 -9.11963,3.50231 -3.6615,0 -6.45879,-1.59196 -2.7973,-1.6147 -4.29828,-4.61667 -1.50099,-3.00197 -1.50099,-7.00461 0,-6.23137 3.25214,-9.68818 3.25214,-3.45682 9.14237,-3.45682 3.6615,0 6.45879,1.59195 2.7973,1.59196 4.29828,4.57119 1.50099,2.97923 1.50099,6.98186 z"
           style="font-style:normal;font-variant:normal;font-weight:bold;font-stretch:normal;font-size:46.57607651px;font-family:'Open Sans';-inkscape-font-specification:'Open Sans Bold';fill:#414141;fill-opacity:1"
           id="path8644" />
        <path
           d="m 332.15093,506.06024 -0.93244,-3.25214 -0.36387,0 q -1.11437,1.7739 -3.16117,2.75181 -2.0468,0.95518 -4.66216,0.95518 -4.48021,0 -6.75444,-2.38794 -2.27422,-2.41067 -2.27422,-6.91363 l 0,-16.57909 6.93638,0 0,14.85068 q 0,2.75181 0.97791,4.13908 0.97792,1.36454 3.11569,1.36454 2.911,0 4.20731,-1.93309 1.29631,-1.95583 1.29631,-6.4588 l 0,-11.96241 6.93638,0 0,25.42581 -5.32168,0 z"
           style="font-style:normal;font-variant:normal;font-weight:bold;font-stretch:normal;font-size:46.57607651px;font-family:'Open Sans';-inkscape-font-specification:'Open Sans Bold';fill:#414141;fill-opacity:1"
           id="path8646" />
        <path
           d="m 352.84635,506.51509 q -4.48022,0 -7.05009,-3.47956 -2.54713,-3.47956 -2.54713,-9.64271 0,-6.25411 2.59261,-9.73367 2.61536,-3.5023 7.18655,-3.5023 4.79861,0 7.32299,3.72972 l 0.22743,0 q -0.52308,-2.84278 -0.52308,-5.07151 l 0,-8.14172 6.95912,0 0,35.3869 -5.32168,0 -1.34179,-3.29762 -0.29565,0 q -2.36519,3.75247 -7.20928,3.75247 z m 2.43342,-5.52636 q 2.66084,0 3.88892,-1.54648 1.25082,-1.54647 1.36453,-5.25345 l 0,-0.75049 q 0,-4.0936 -1.27356,-5.8675 -1.25083,-1.77389 -4.0936,-1.77389 -2.31971,0 -3.61602,1.97857 -1.27356,1.95583 -1.27356,5.7083 0,3.75247 1.2963,5.64007 1.29631,1.86487 3.70699,1.86487 z"
           style="font-style:normal;font-variant:normal;font-weight:bold;font-stretch:normal;font-size:46.57607651px;font-family:'Open Sans';-inkscape-font-specification:'Open Sans Bold';fill:#414141;fill-opacity:1"
           id="path8648" />
        <path
           d="m 384.59449,506.51509 q -11.87144,0 -11.87144,-13.0313 0,-6.48153 3.2294,-9.89287 3.22939,-3.43407 9.25608,-3.43407 4.412,0 7.9143,1.72841 l -2.0468,5.36716 q -1.63744,-0.65952 -3.04746,-1.06888 -1.41002,-0.43211 -2.82004,-0.43211 -5.41265,0 -5.41265,7.68688 0,7.45945 5.41265,7.45945 2.00132,0 3.70699,-0.52307 1.70566,-0.54582 3.41133,-1.68293 l 0,5.93572 q -1.68292,1.06889 -3.41133,1.47825 -1.70567,0.40936 -4.32103,0.40936 z"
           style="font-style:normal;font-variant:normal;font-weight:bold;font-stretch:normal;font-size:46.57607651px;font-family:'Open Sans';-inkscape-font-specification:'Open Sans Bold';fill:#414141;fill-opacity:1"
           id="path8650" />
        <path
           d="m 412.38549,480.15685 q 1.41002,0 2.34245,0.20468 l -0.52307,6.50427 q -0.84146,-0.22742 -2.0468,-0.22742 -3.32037,0 -5.18523,1.70567 -1.84212,1.70567 -1.84212,4.77587 l 0,12.94032 -6.93638,0 0,-25.42581 5.25346,0 1.0234,4.27554 0.34113,0 q 1.1826,-2.13777 3.18391,-3.43407 2.02406,-1.31905 4.38925,-1.31905 z"
           style="font-style:normal;font-variant:normal;font-weight:bold;font-stretch:normal;font-size:46.57607651px;font-family:'Open Sans';-inkscape-font-specification:'Open Sans Bold';fill:#414141;fill-opacity:1"
           id="path8652" />
        <path
           d="m 435.53708,506.06024 -1.34179,-3.45682 -0.18194,0 q -1.75115,2.206 -3.61601,3.0702 -1.84212,0.84147 -4.82136,0.84147 -3.66149,0 -5.77652,-2.09229 -2.09229,-2.09228 -2.09229,-5.95846 0,-4.04812 2.82004,-5.95846 2.84278,-1.93309 8.55108,-2.13777 l 4.41199,-0.13646 0,-1.11437 q 0,-3.86617 -3.95715,-3.86617 -3.04746,0 -7.1638,1.84212 l -2.29696,-4.6849 q 4.38924,-2.29697 9.73367,-2.29697 5.117,0 7.84607,2.22874 2.72906,2.22874 2.72906,6.77718 l 0,16.94296 -4.84409,0 z m -2.0468,-11.78047 -2.68358,0.091 q -3.02472,0.091 -4.50296,1.09162 -1.47825,1.00066 -1.47825,3.04746 0,2.93375 3.36585,2.93375 2.41068,0 3.84344,-1.38728 1.4555,-1.38727 1.4555,-3.68424 l 0,-2.09228 z"
           style="font-style:normal;font-variant:normal;font-weight:bold;font-stretch:normal;font-size:46.57607651px;font-family:'Open Sans';-inkscape-font-specification:'Open Sans Bold';fill:#414141;fill-opacity:1"
           id="path8654" />
        <path
           d="m 461.55418,485.8424 -6.00394,0 0,20.21784 -6.93638,0 0,-20.21784 -3.8207,0 0,-3.3431 3.8207,-1.86487 0,-1.86486 q 0,-4.34376 2.13777,-6.34508 2.13777,-2.00131 6.84541,-2.00131 3.59327,0 6.39056,1.06888 l -1.77389,5.09426 q -2.09229,-0.65953 -3.86618,-0.65953 -1.47824,0 -2.13777,0.88695 -0.65952,0.86421 -0.65952,2.22874 l 0,1.59195 6.00394,0 0,5.20797 z"
           style="font-style:normal;font-variant:normal;font-weight:bold;font-stretch:normal;font-size:46.57607651px;font-family:'Open Sans';-inkscape-font-specification:'Open Sans Bold';fill:#414141;fill-opacity:1"
           id="path8656" />
        <path
           d="m 476.22292,500.98873 q 1.81938,0 4.3665,-0.79598 l 0,5.16248 q -2.59261,1.15986 -6.36782,1.15986 -4.16183,0 -6.07217,-2.09229 -1.88761,-2.11503 -1.88761,-6.32234 l 0,-12.25806 -3.32036,0 0,-2.93374 3.82069,-2.31971 2.00132,-5.36717 4.43473,0 0,5.41265 7.11832,0 0,5.20797 -7.11832,0 0,12.25806 q 0,1.47825 0.81872,2.18326 0.84146,0.70501 2.206,0.70501 z"
           style="font-style:normal;font-variant:normal;font-weight:bold;font-stretch:normal;font-size:46.57607651px;font-family:'Open Sans';-inkscape-font-specification:'Open Sans Bold';fill:#414141;fill-opacity:1"
           id="path8658" />
      </g>
    </g>
  </g>
</svg>
